<?xml version="1.0" encoding="utf-8"?>
<!-- Generator: Adobe Illustrator 24.3.0, SVG Export Plug-In . SVG Version: 6.00 Build 0)  -->
<svg version="1.1" data-id="Layer_1" xmlns="http://www.w3.org/2000/svg" xmlns:xlink="http://www.w3.org/1999/xlink" x="0px" y="0px"
	 viewBox="0 0 1366.1 881.7" style="enable-background:new 0 0 1366.1 881.7;" xml:space="preserve">
<style type="text/css">
	.st0{opacity:0.1;fill:#FFFFFF;stroke:#FFFFFF;stroke-miterlimit:10;}
	.st1{opacity:0.2;fill:#FFFFFF;stroke:#FFFFFF;stroke-miterlimit:10;}
	.st2{opacity:0.3;fill:#FFFFFF;stroke:#FFFFFF;stroke-miterlimit:10;}
	.st3{opacity:0.4;fill:#FFFFFF;stroke:#FFFFFF;stroke-miterlimit:10;}
	.st4{opacity:0.5;fill:#FFFFFF;stroke:#FFFFFF;stroke-miterlimit:10;}
	.st5{opacity:0.6;fill:#FFFFFF;stroke:#FFFFFF;stroke-miterlimit:10;}
	.st6{opacity:0.7;fill:#FFFFFF;stroke:#FFFFFF;stroke-miterlimit:10;}
	.st7{opacity:0.8;fill:#FFFFFF;stroke:#FFFFFF;stroke-miterlimit:10;}
	.st8{opacity:0.9;fill:#FFFFFF;stroke:#FFFFFF;stroke-miterlimit:10;}
	.st9{fill:#FFFFFF;stroke:#FFFFFF;stroke-miterlimit:10;}
</style>
<rect x="-73.5" y="555" transform="matrix(-0.7071 -0.7071 0.7071 -0.7071 238.6591 2721.9109)" class="st0" width="1513.1" height="1513.1"/>
<rect x="-35.5" y="593" transform="matrix(-0.7071 -0.7071 0.7071 -0.7071 238.6591 2721.9109)" class="st1" width="1437.1" height="1437.1"/>
<rect x="3.8" y="632.3" transform="matrix(-0.7071 -0.7071 0.7071 -0.7071 236.4642 2716.6121)" class="st2" width="1354.2" height="1354.2"/>
<rect x="42.1" y="670.6" transform="matrix(-0.7071 -0.7071 0.7071 -0.7071 236.4642 2716.6121)" class="st3" width="1277.5" height="1277.5"/>
<rect x="61.3" y="717" transform="matrix(-0.7071 -0.7071 0.7071 -0.7071 217.2589 2762.9778)" class="st4" width="1239.1" height="1239.1"/>
<rect x="99.6" y="755.2" transform="matrix(-0.7071 -0.7071 0.7071 -0.7071 217.2589 2762.9778)" class="st5" width="1162.5" height="1162.5"/>
<rect x="138.2" y="793.8" transform="matrix(-0.7071 -0.7071 0.7071 -0.7071 217.2589 2762.9778)" class="st6" width="1085.4" height="1085.4"/>
<rect x="176.5" y="832.2" transform="matrix(-0.7071 -0.7071 0.7071 -0.7071 217.2589 2762.9778)" class="st7" width="1008.7" height="1008.7"/>
<rect x="214.9" y="870.5" transform="matrix(-0.7071 -0.7071 0.7071 -0.7071 217.2589 2762.9778)" class="st8" width="931.9" height="931.9"/>
<rect x="253.4" y="909" transform="matrix(-0.7071 -0.7071 0.7071 -0.7071 217.2589 2762.9778)" class="st9" width="854.9" height="854.9"/>
</svg>
